<?xml version="1.0" encoding="UTF-8"?>
<svg width="36px" height="36px" viewBox="0 0 36 36" version="1.1" xmlns="http://www.w3.org/2000/svg" xmlns:xlink="http://www.w3.org/1999/xlink">
    <!-- Generator: Sketch 53.2 (72643) - https://sketchapp.com -->
    <title>Path</title>
    <desc>Created with Sketch.</desc>
    <g id="Welcome" stroke="none" stroke-width="1" fill="none" fill-rule="evenodd">
        <g id="Mobile-Portrait" transform="translate(-88.000000, -49.000000)" fill="#FFFFFF" fill-rule="nonzero">
            <g id="Logo" transform="translate(45.000000, 30.000000)">
                <g id="GoogleMaterial-ic-local-phone-48px" transform="translate(35.000000, 19.000000)">
                    <path d="M15.1825366,15.6644003 C16.3085975,19.6808797 23.3437349,26.7663992 28.1744142,28.5263992 L32.5412008,24.1884004 C33.1225007,23.6384004 33.759457,23.6384004 34.9566022,23.8005117 C34.9566022,23.8005117 41.8471177,24.4776643 41.8471177,24.4776643 C43.1920402,24.4776643 43.7441258,25.3191205 43.7441258,26.7690651 L43.7441258,33.4936776 C43.7441258,34.4396839 42.9020299,35.5 41.5543353,35.5 C22.27622,35.5 7.89869101,21.5536939 8.31893724,2 C8.34278765,0.89026085 8.9,0 10,0 L16.9013938,0 C18.0113938,0 18.6517027,0.289552621 18.9920236,1.52164577 C18.9920236,1.52164577 20.0520418,9.21294264 20.0520418,9.21294264 C20.2425725,10.7250117 19.1610571,11.6625831 19.1610571,11.6625831" id="Path"></path>
                </g>
            </g>
        </g>
    </g>
</svg>